<mxfile host="app.diagrams.net" modified="2022-04-20T06:50:37.234Z" agent="5.0 (Windows NT 10.0; Win64; x64) AppleWebKit/537.36 (KHTML, like Gecko) Chrome/100.0.4896.127 Safari/537.36" etag="65ySHy2-VIWdoDfjSxJs" version="17.4.5" type="github">
  <diagram id="purSF6M9CdU6jgc2_5qU" name="Page-1">
    <mxGraphModel dx="1038" dy="2886" grid="1" gridSize="10" guides="1" tooltips="1" connect="1" arrows="1" fold="1" page="1" pageScale="1" pageWidth="3300" pageHeight="2339" math="0" shadow="0">
      <root>
        <mxCell id="0" />
        <mxCell id="1" parent="0" />
        <mxCell id="ji30JJAJ00wYFFFnJrRD-1" value="&lt;font style=&quot;font-size: 27px&quot;&gt;条码&lt;/font&gt;" style="ellipse;whiteSpace=wrap;html=1;" parent="1" vertex="1">
          <mxGeometry x="482" y="40" width="270" height="150" as="geometry" />
        </mxCell>
        <mxCell id="ji30JJAJ00wYFFFnJrRD-3" value="" style="endArrow=classic;html=1;rounded=0;fontSize=27;exitX=0.314;exitY=0.987;exitDx=0;exitDy=0;exitPerimeter=0;entryX=0.724;entryY=0.025;entryDx=0;entryDy=0;entryPerimeter=0;" parent="1" source="ji30JJAJ00wYFFFnJrRD-1" target="ji30JJAJ00wYFFFnJrRD-5" edge="1">
          <mxGeometry width="50" height="50" relative="1" as="geometry">
            <mxPoint x="522" y="240" as="sourcePoint" />
            <mxPoint x="532" y="260" as="targetPoint" />
          </mxGeometry>
        </mxCell>
        <mxCell id="ji30JJAJ00wYFFFnJrRD-4" value="聚合根" style="shape=callout;whiteSpace=wrap;html=1;perimeter=calloutPerimeter;fontSize=27;" parent="1" vertex="1">
          <mxGeometry x="662" width="100" height="60" as="geometry" />
        </mxCell>
        <mxCell id="ji30JJAJ00wYFFFnJrRD-5" value="&lt;font style=&quot;font-size: 17px&quot;&gt;基本属性&lt;/font&gt;" style="ellipse;whiteSpace=wrap;html=1;fontSize=27;" parent="1" vertex="1">
          <mxGeometry x="412" y="250" width="90" height="80" as="geometry" />
        </mxCell>
        <mxCell id="ji30JJAJ00wYFFFnJrRD-6" value="" style="endArrow=classic;html=1;rounded=0;fontSize=27;exitX=0.5;exitY=1;exitDx=0;exitDy=0;entryX=0.596;entryY=-0.035;entryDx=0;entryDy=0;entryPerimeter=0;" parent="1" source="ji30JJAJ00wYFFFnJrRD-1" target="ji30JJAJ00wYFFFnJrRD-9" edge="1">
          <mxGeometry width="50" height="50" relative="1" as="geometry">
            <mxPoint x="614.66" y="190.00000000000017" as="sourcePoint" />
            <mxPoint x="612" y="270" as="targetPoint" />
          </mxGeometry>
        </mxCell>
        <mxCell id="ji30JJAJ00wYFFFnJrRD-7" value="" style="endArrow=classic;html=1;rounded=0;fontSize=27;exitX=0.353;exitY=1.012;exitDx=0;exitDy=0;exitPerimeter=0;entryX=0.5;entryY=0;entryDx=0;entryDy=0;" parent="1" target="ji30JJAJ00wYFFFnJrRD-10" edge="1">
          <mxGeometry width="50" height="50" relative="1" as="geometry">
            <mxPoint x="653.3299999999999" y="190.00000000000017" as="sourcePoint" />
            <mxPoint x="732" y="250" as="targetPoint" />
          </mxGeometry>
        </mxCell>
        <mxCell id="ji30JJAJ00wYFFFnJrRD-9" value="&lt;span style=&quot;font-size: 17px&quot;&gt;外部属性&lt;/span&gt;" style="ellipse;whiteSpace=wrap;html=1;fontSize=27;" parent="1" vertex="1">
          <mxGeometry x="502" y="270" width="90" height="80" as="geometry" />
        </mxCell>
        <mxCell id="ji30JJAJ00wYFFFnJrRD-10" value="&lt;font style=&quot;font-size: 17px&quot;&gt;绑定关系&lt;/font&gt;" style="ellipse;whiteSpace=wrap;html=1;fontSize=27;" parent="1" vertex="1">
          <mxGeometry x="612" y="270" width="90" height="80" as="geometry" />
        </mxCell>
        <mxCell id="ji30JJAJ00wYFFFnJrRD-12" value="" style="endArrow=classic;html=1;rounded=0;fontSize=27;exitX=0.353;exitY=1.012;exitDx=0;exitDy=0;exitPerimeter=0;" parent="1" edge="1">
          <mxGeometry width="50" height="50" relative="1" as="geometry">
            <mxPoint x="752" y="130" as="sourcePoint" />
            <mxPoint x="962" y="140" as="targetPoint" />
          </mxGeometry>
        </mxCell>
        <mxCell id="ji30JJAJ00wYFFFnJrRD-13" value="行为" style="rounded=1;whiteSpace=wrap;html=1;fontSize=17;" parent="1" vertex="1">
          <mxGeometry x="832" y="100" width="80" height="30" as="geometry" />
        </mxCell>
        <mxCell id="ji30JJAJ00wYFFFnJrRD-14" value="投料,转序,退料,成品入库,线边入库,工序消耗,工序产出,出库,物料储存卡,EO清板,辐照完工整板,移库" style="rounded=0;whiteSpace=wrap;html=1;fontSize=17;" parent="1" vertex="1">
          <mxGeometry x="962" y="110" width="400" height="60" as="geometry" />
        </mxCell>
        <mxCell id="ji30JJAJ00wYFFFnJrRD-15" value="&lt;font style=&quot;font-size: 17px&quot;&gt;日志&lt;/font&gt;" style="ellipse;whiteSpace=wrap;html=1;fontSize=27;" parent="1" vertex="1">
          <mxGeometry x="722" y="270" width="90" height="80" as="geometry" />
        </mxCell>
        <mxCell id="ji30JJAJ00wYFFFnJrRD-16" value="" style="endArrow=classic;html=1;rounded=0;fontSize=27;exitX=0.353;exitY=1.012;exitDx=0;exitDy=0;exitPerimeter=0;entryX=0.32;entryY=-0.005;entryDx=0;entryDy=0;entryPerimeter=0;" parent="1" target="ji30JJAJ00wYFFFnJrRD-15" edge="1">
          <mxGeometry width="50" height="50" relative="1" as="geometry">
            <mxPoint x="702" y="170" as="sourcePoint" />
            <mxPoint x="705.6700000000001" y="250" as="targetPoint" />
          </mxGeometry>
        </mxCell>
      </root>
    </mxGraphModel>
  </diagram>
</mxfile>
